<?xml version="1.0" encoding="UTF-8" standalone="no"?>
<svg
   viewBox="0 0 24 24"
   version="1.1"
   id="svg4"
   sodipodi:docname="app_logo_3.svg"
   inkscape:version="1.1.2 (b8e25be833, 2022-02-05)"
   xmlns:inkscape="http://www.inkscape.org/namespaces/inkscape"
   xmlns:sodipodi="http://sodipodi.sourceforge.net/DTD/sodipodi-0.dtd"
   xmlns:xlink="http://www.w3.org/1999/xlink"
   xmlns="http://www.w3.org/2000/svg"
   xmlns:svg="http://www.w3.org/2000/svg">
  <defs
     id="defs8">
    <linearGradient
       inkscape:collect="always"
       id="linearGradient23595">
      <stop
         style="stop-color:#000080;stop-opacity:1"
         offset="0"
         id="stop23591" />
      <stop
         style="stop-color:#0000b2;stop-opacity:1"
         offset="1"
         id="stop23593" />
    </linearGradient>
    <linearGradient
       inkscape:collect="always"
       id="linearGradient21224">
      <stop
         style="stop-color:#333333;stop-opacity:1"
         offset="0"
         id="stop21220" />
      <stop
         style="stop-color:#1a1a1a;stop-opacity:1"
         offset="1"
         id="stop21222" />
    </linearGradient>
    <linearGradient
       inkscape:collect="always"
       id="linearGradient20640">
      <stop
         style="stop-color:#1a1a1a;stop-opacity:1"
         offset="0"
         id="stop20636" />
      <stop
         style="stop-color:#4d4d4d;stop-opacity:1"
         offset="1"
         id="stop20638" />
    </linearGradient>
    <linearGradient
       inkscape:collect="always"
       id="linearGradient20122">
      <stop
         style="stop-color:#997b00;stop-opacity:1"
         offset="0"
         id="stop20118" />
      <stop
         style="stop-color:#ffcc00;stop-opacity:1"
         offset="1"
         id="stop20120" />
    </linearGradient>
    <linearGradient
       inkscape:collect="always"
       id="linearGradient18300">
      <stop
         style="stop-color:#1a1a1a;stop-opacity:1"
         offset="0"
         id="stop18296" />
      <stop
         style="stop-color:#4d4d4d;stop-opacity:1"
         offset="1"
         id="stop18298" />
    </linearGradient>
    <linearGradient
       inkscape:collect="always"
       id="linearGradient16871">
      <stop
         style="stop-color:#4d4d4d;stop-opacity:1"
         offset="0"
         id="stop16867" />
      <stop
         style="stop-color:#808080;stop-opacity:1"
         offset="1"
         id="stop16869" />
    </linearGradient>
    <linearGradient
       inkscape:collect="always"
       id="linearGradient16285">
      <stop
         style="stop-color:#806600;stop-opacity:1;"
         offset="0"
         id="stop16281" />
      <stop
         style="stop-color:#d6ac00;stop-opacity:1"
         offset="1"
         id="stop16283" />
    </linearGradient>
    <linearGradient
       inkscape:collect="always"
       id="linearGradient3081">
      <stop
         style="stop-color:#e5e5e5;stop-opacity:1"
         offset="0"
         id="stop3077" />
      <stop
         style="stop-color:#ffffff;stop-opacity:0;"
         offset="1"
         id="stop3079" />
    </linearGradient>
    <linearGradient
       inkscape:collect="always"
       id="linearGradient1787">
      <stop
         style="stop-color:#e5e5e5;stop-opacity:1"
         offset="0"
         id="stop1783" />
      <stop
         style="stop-color:#f2f2f2;stop-opacity:0"
         offset="1"
         id="stop1785" />
    </linearGradient>
    <linearGradient
       inkscape:collect="always"
       xlink:href="#linearGradient1787"
       id="linearGradient2435"
       x1="0"
       y1="24"
       x2="20"
       y2="4"
       gradientUnits="userSpaceOnUse" />
    <linearGradient
       inkscape:collect="always"
       xlink:href="#linearGradient3081"
       id="linearGradient3083"
       x1="13"
       y1="11"
       x2="20"
       y2="4"
       gradientUnits="userSpaceOnUse" />
    <linearGradient
       inkscape:collect="always"
       xlink:href="#linearGradient16285"
       id="linearGradient16287"
       x1="18.431021"
       y1="6.797472"
       x2="17.842278"
       y2="6.2087278"
       gradientUnits="userSpaceOnUse" />
    <linearGradient
       inkscape:collect="always"
       xlink:href="#linearGradient16871"
       id="linearGradient16801"
       x1="19.282595"
       y1="7.6490459"
       x2="16.992556"
       y2="5.3590064"
       gradientUnits="userSpaceOnUse" />
    <linearGradient
       inkscape:collect="always"
       xlink:href="#linearGradient18300"
       id="linearGradient18302"
       x1="19.282595"
       y1="7.6490459"
       x2="16.992556"
       y2="5.3590064"
       gradientUnits="userSpaceOnUse" />
    <linearGradient
       inkscape:collect="always"
       xlink:href="#linearGradient20122"
       id="linearGradient20116"
       x1="19.282595"
       y1="7.6490459"
       x2="16.992556"
       y2="5.3590064"
       gradientUnits="userSpaceOnUse" />
    <linearGradient
       inkscape:collect="always"
       xlink:href="#linearGradient20640"
       id="linearGradient20642"
       x1="19.282595"
       y1="7.6490459"
       x2="16.992556"
       y2="5.3590064"
       gradientUnits="userSpaceOnUse" />
    <linearGradient
       inkscape:collect="always"
       xlink:href="#linearGradient21224"
       id="linearGradient21226"
       x1="20.736696"
       y1="9.1031475"
       x2="19.282595"
       y2="7.6490459"
       gradientUnits="userSpaceOnUse" />
    <linearGradient
       inkscape:collect="always"
       xlink:href="#linearGradient23595"
       id="linearGradient23597"
       x1="4.7451186"
       y1="17.573244"
       x2="11.904298"
       y2="10.414064"
       gradientUnits="userSpaceOnUse" />
  </defs>
  <sodipodi:namedview
     id="namedview6"
     pagecolor="#ffffff"
     bordercolor="#666666"
     borderopacity="1.0"
     inkscape:pageshadow="2"
     inkscape:pageopacity="0.0"
     inkscape:pagecheckerboard="0"
     showgrid="false"
     inkscape:snap-bbox="true"
     inkscape:bbox-nodes="true"
     showguides="true"
     inkscape:guide-bbox="true"
     inkscape:snap-smooth-nodes="true"
     inkscape:snap-nodes="true"
     inkscape:snap-intersection-paths="true"
     inkscape:snap-others="true"
     inkscape:snap-global="true"
     inkscape:snap-bbox-edge-midpoints="true"
     inkscape:zoom="32"
     inkscape:cx="11.234375"
     inkscape:cy="7.78125"
     inkscape:window-width="1858"
     inkscape:window-height="1057"
     inkscape:window-x="1974"
     inkscape:window-y="-8"
     inkscape:window-maximized="1"
     inkscape:current-layer="layer5">
    <inkscape:grid
       type="xygrid"
       id="grid825" />
    <sodipodi:guide
       position="11.904298,13.585936"
       orientation="-0.70710678,-0.70710678"
       id="guide23555" />
    <sodipodi:guide
       position="5.2265624,5.945313"
       orientation="-0.70710678,-0.70710678"
       id="guide23557" />
    <sodipodi:guide
       position="11.904298,13.585936"
       orientation="0.70710678,-0.70710678"
       id="guide23559" />
  </sodipodi:namedview>
  <g
     inkscape:groupmode="layer"
     id="layer1"
     inkscape:label="Layer 1"
     style="display:inline">
    <path
       id="rect849"
       style="fill:url(#linearGradient2435);fill-opacity:1;stroke-width:2;stroke-linecap:round;stroke-linejoin:round"
       d="m 2,4 h 11 l 7,7 v 11 c 0,1.108 -0.892,2 -2,2 H 2 C 0.892,24 0,23.108 0,22 V 6 C 0,4.892 0.892,4 2,4 Z"
       sodipodi:nodetypes="sccssssss" />
  </g>
  <g
     inkscape:groupmode="layer"
     id="layer2"
     inkscape:label="Layer 2"
     style="display:inline">
    <path
       id="rect1478"
       style="fill:url(#linearGradient3083);fill-opacity:1;stroke-width:2;stroke-linecap:round;stroke-linejoin:round"
       d="m 13,4 v 5 c 0,1.108 0.892,2 2,2 h 5 z" />
  </g>
  <g
     inkscape:groupmode="layer"
     id="layer3"
     inkscape:label="Layer 3"
     style="display:none">
    <path
       id="path9247"
       d="m 20.599749,6.33 -5.67,5.67 h -2.29 V 9.71 l 5.67,-5.68 2.29,2.3 m 3.4,-0.78 c -0.01,0.3 -0.32,0.61 -0.64,0.92 l -2.52,2.53 -0.87,-0.87 2.6,-2.59 -0.59,-0.59 -0.67,0.67 -2.29,-2.29 2.15,-2.15 c 0.24,-0.24 0.63,-0.24 0.86,0 l 1.43,1.43 c 0.24,0.22 0.24,0.62 0,0.86 -0.21,0.21 -0.41,0.41 -0.41,0.61 -0.02,0.2 0.18,0.42 0.38,0.59 0.29,0.3 0.58,0.58 0.57,0.88 z"
       style="display:inline" />
  </g>
  <g
     inkscape:groupmode="layer"
     id="layer4"
     inkscape:label="Layer 4"
     style="display:inline">
    <path
       style="color:#000000;fill:url(#linearGradient23597);stroke-linecap:round;stroke-linejoin:round;-inkscape-stroke:none;fill-opacity:1"
       d="M 6.1542969,7.71875 C 5.467479,7.714566 4.7134951,7.9036032 4.1796875,8.4726563 3.6272424,9.0615773 3.5066034,9.9405825 3.6894531,10.609375 c 0.1828498,0.668792 0.5617774,1.226336 1.0019531,1.751953 0.8803515,1.051234 2.0610353,1.968303 2.9199219,2.566406 0.8323459,0.579622 1.851252,1.301875 2.4804689,1.97461 0.314608,0.336367 0.518583,0.656151 0.589844,0.863281 0.07126,0.20713 0.06899,0.255118 -0.01758,0.408203 0.0011,-0.002 0.03098,0.01863 -0.195313,0.04687 -0.226292,0.02825 -0.6349874,-0.0085 -1.0996094,-0.138672 C 8.4398967,17.82169 7.2928403,17.204966 6.5429687,16.548828 a 1,1 0 0 0 -1.4121093,0.09375 1,1 0 0 0 0.095703,1.412109 c 1.0166758,0.889592 2.3309565,1.596599 3.6035156,1.953125 0.6362796,0.178264 1.2614419,0.275321 1.8867189,0.197266 0.625277,-0.07805 1.32292,-0.402198 1.6875,-1.046875 0.366708,-0.648439 0.380273,-1.425872 0.167969,-2.042969 -0.212305,-0.617096 -0.590851,-1.121749 -1.019532,-1.580078 -0.857361,-0.916658 -1.9684338,-1.671737 -2.7988277,-2.25 C 7.9897255,12.753003 6.8946354,11.876255 6.2246094,11.076172 5.8895964,10.676131 5.6766232,10.29228 5.6191406,10.082031 5.561658,9.8717825 5.5521369,9.9340455 5.6386719,9.8417969 5.688949,9.7882001 5.8041331,9.7166883 6.1425781,9.71875 c 0.338445,0.00206 0.8365393,0.1039898 1.3710938,0.302734 1.069109,0.39749 2.2889024,1.167376 3.0273441,1.855469 a 1,1 0 0 0 1.414062,-0.05078 1,1 0 0 0 -0.05078,-1.412109 C 10.928148,9.5044692 9.57559,8.6565344 8.2089844,8.1484375 7.5256816,7.894389 6.8411148,7.722934 6.1542969,7.71875 Z"
       id="path6415" />
    <path
       style="fill:url(#linearGradient20116);stroke:none;stroke-width:1px;stroke-linecap:butt;stroke-linejoin:miter;stroke-opacity:1;fill-opacity:1"
       d="M 18.307246,4.0325072 20.602244,6.327505 21.310547,5.6191406 19.014128,3.3243789 Z"
       id="path9754"
       sodipodi:nodetypes="ccccc" />
    <path
       style="fill:url(#linearGradient16287);stroke:none;stroke-width:1px;stroke-linecap:butt;stroke-linejoin:miter;stroke-opacity:1;fill-opacity:1"
       d="m 12.765784,11.285221 0.588744,0.588744 -0.500493,0.08825 c -0.214286,0.03778 -0.214292,0.03778 -0.176506,-0.176506 z"
       id="path12965"
       sodipodi:nodetypes="ccssc" />
  </g>
  <g
     inkscape:groupmode="layer"
     id="layer5"
     inkscape:label="Layer 5"
     style="display:inline">
    <path
       id="path9636"
       style="display:inline;fill:url(#linearGradient16801);stroke:none;stroke-width:1px;stroke-linecap:butt;stroke-linejoin:miter;stroke-opacity:1;fill-opacity:1"
       d="M 13.355469 11.873047 L 15.419922 11.509766 L 13.130859 9.2207031 L 12.765625 11.285156 L 13.355469 11.873047 z " />
    <path
       id="path9869"
       style="fill:url(#linearGradient21226);fill-opacity:1;stroke:none;stroke-width:1px;stroke-linecap:butt;stroke-linejoin:miter;stroke-opacity:1"
       d="m 23.458984,3.4707031 -1.632812,1.3242189 0.154297,0.1542968 c 0.520251,0.520251 0.520251,0.6496708 0,1.1699218 L 19.970703,8.1308594 20.839844,9 23.435547,6.4042969 c 0.565251,-0.565251 0.564391,-1.164124 -0.0059,-1.734375 -0.42975,-0.429749 -0.430453,-0.7394698 0.0293,-1.1992188 z"
       sodipodi:nodetypes="ccccccssc" />
  </g>
  <g
     inkscape:groupmode="layer"
     id="layer7"
     inkscape:label="Layer 6">
    <path
       id="path13598"
       style="display:inline;fill:url(#linearGradient18302);stroke:none;stroke-width:1px;stroke-linecap:butt;stroke-linejoin:miter;stroke-opacity:1;fill-opacity:1"
       d="M 18.306641 4.0332031 L 13.130859 9.21875 L 13.130859 9.2207031 L 15.419922 11.509766 L 15.421875 11.509766 L 20.601562 6.328125 L 18.306641 4.0332031 z " />
    <path
       id="path13746"
       style="display:inline;fill:url(#linearGradient20642);stroke:none;stroke-width:1px;stroke-linecap:butt;stroke-linejoin:miter;stroke-opacity:1;fill-opacity:1"
       d="M 21.154297 1.1796875 L 19.013672 3.3242188 L 21.310547 5.6191406 L 21.980469 4.9492188 L 23.458984 3.4707031 C 23.661547 3.2681401 23.661688 2.8120789 23.458984 2.609375 L 22.029297 1.1796875 C 21.823053 0.97344389 21.360359 0.97326225 21.154297 1.1796875 z " />
  </g>
</svg>
