<?xml version="1.0" encoding="UTF-8" standalone="no"?>
<svg
   viewBox="0 0 24 24"
   version="1.1"
   id="svg4"
   sodipodi:docname="app_logo_2.svg"
   inkscape:version="1.1.2 (b8e25be833, 2022-02-05)"
   xmlns:inkscape="http://www.inkscape.org/namespaces/inkscape"
   xmlns:sodipodi="http://sodipodi.sourceforge.net/DTD/sodipodi-0.dtd"
   xmlns:xlink="http://www.w3.org/1999/xlink"
   xmlns="http://www.w3.org/2000/svg"
   xmlns:svg="http://www.w3.org/2000/svg">
  <defs
     id="defs8">
    <linearGradient
       inkscape:collect="always"
       id="linearGradient1620">
      <stop
         style="stop-color:#1a1a1a;stop-opacity:1"
         offset="0"
         id="stop1616" />
      <stop
         style="stop-color:#4d4d4d;stop-opacity:1"
         offset="1"
         id="stop1618" />
    </linearGradient>
    <linearGradient
       inkscape:collect="always"
       id="linearGradient14429">
      <stop
         style="stop-color:#e6e6e6;stop-opacity:1"
         offset="0"
         id="stop14425" />
      <stop
         style="stop-color:#ffffff;stop-opacity:1"
         offset="1"
         id="stop14427" />
    </linearGradient>
    <linearGradient
       inkscape:collect="always"
       id="linearGradient13349">
      <stop
         style="stop-color:#000000;stop-opacity:0.5"
         offset="0"
         id="stop13345" />
      <stop
         style="stop-color:#101010;stop-opacity:0;"
         offset="1"
         id="stop13347" />
    </linearGradient>
    <linearGradient
       inkscape:collect="always"
       xlink:href="#linearGradient13349"
       id="linearGradient13481"
       x1="17.830128"
       y1="7.5"
       x2="13.5"
       y2="0"
       gradientUnits="userSpaceOnUse" />
    <linearGradient
       inkscape:collect="always"
       xlink:href="#linearGradient14429"
       id="linearGradient14467"
       x1="17.830128"
       y1="7.5"
       x2="13.5"
       y2="0"
       gradientUnits="userSpaceOnUse" />
    <linearGradient
       inkscape:collect="always"
       xlink:href="#linearGradient14429"
       id="linearGradient15147"
       x1="18.928204"
       y1="24"
       x2="5.0717969"
       y2="0"
       gradientUnits="userSpaceOnUse" />
    <linearGradient
       inkscape:collect="always"
       xlink:href="#linearGradient1620"
       id="linearGradient15816"
       x1="18.928204"
       y1="24"
       x2="5.0717969"
       y2="0"
       gradientUnits="userSpaceOnUse" />
    <linearGradient
       inkscape:collect="always"
       xlink:href="#linearGradient1620"
       id="linearGradient1264"
       gradientUnits="userSpaceOnUse"
       x1="18.928204"
       y1="24"
       x2="5.0717969"
       y2="0" />
    <linearGradient
       inkscape:collect="always"
       xlink:href="#linearGradient1620"
       id="linearGradient2213"
       gradientUnits="userSpaceOnUse"
       x1="18.928204"
       y1="24"
       x2="5.0717969"
       y2="0" />
    <linearGradient
       inkscape:collect="always"
       xlink:href="#linearGradient1620"
       id="linearGradient2409"
       gradientUnits="userSpaceOnUse"
       x1="18.928204"
       y1="24"
       x2="5.0717969"
       y2="0" />
    <linearGradient
       inkscape:collect="always"
       xlink:href="#linearGradient1620"
       id="linearGradient2733"
       gradientUnits="userSpaceOnUse"
       x1="18.928204"
       y1="24"
       x2="5.0717969"
       y2="0" />
    <linearGradient
       inkscape:collect="always"
       xlink:href="#linearGradient1620"
       id="linearGradient2863"
       gradientUnits="userSpaceOnUse"
       x1="18.928204"
       y1="24"
       x2="5.0717969"
       y2="0" />
    <linearGradient
       inkscape:collect="always"
       xlink:href="#linearGradient1620"
       id="linearGradient3057"
       gradientUnits="userSpaceOnUse"
       x1="18.928204"
       y1="24"
       x2="5.0717969"
       y2="0" />
  </defs>
  <sodipodi:namedview
     id="namedview6"
     pagecolor="#ffffff"
     bordercolor="#666666"
     borderopacity="1.0"
     inkscape:pageshadow="2"
     inkscape:pageopacity="0.0"
     inkscape:pagecheckerboard="0"
     showgrid="false"
     inkscape:snap-bbox="true"
     inkscape:bbox-nodes="true"
     inkscape:snap-nodes="true"
     showguides="true"
     inkscape:guide-bbox="true"
     inkscape:snap-smooth-nodes="true"
     inkscape:zoom="32"
     inkscape:cx="8.734375"
     inkscape:cy="12.3125"
     inkscape:window-width="1858"
     inkscape:window-height="1057"
     inkscape:window-x="54"
     inkscape:window-y="-8"
     inkscape:window-maximized="1"
     inkscape:current-layer="layer1"
     inkscape:snap-bbox-edge-midpoints="true">
    <inkscape:grid
       type="xygrid"
       id="grid825" />
    <sodipodi:guide
       position="3,24"
       orientation="0,-1"
       id="guide858" />
    <sodipodi:guide
       position="3,0"
       orientation="0,-1"
       id="guide860" />
    <sodipodi:guide
       position="3,12"
       orientation="0,-1"
       id="guide862" />
    <sodipodi:guide
       position="12,0"
       orientation="1,0"
       id="guide864" />
    <sodipodi:guide
       position="12,12"
       orientation="-0.8660254,-0.5"
       id="guide866"
       inkscape:label=""
       inkscape:locked="false"
       inkscape:color="rgb(0,0,255)" />
    <sodipodi:guide
       position="21,24"
       orientation="0.70710678,-0.70710678"
       id="guide3937" />
    <sodipodi:guide
       position="21,16.5"
       orientation="-0.70710678,-0.70710678"
       id="guide3939" />
  </sodipodi:namedview>
  <g
     inkscape:groupmode="layer"
     id="layer2"
     inkscape:label="Extra"
     style="display:none">
    <path
       d="M 9.7488568,21.85 C 11.528857,21.15 11.138857,19.22 10.238857,18 9.3488564,16.75 8.1188564,15.89 6.8788564,15.06 c -0.88,-0.56 -1.69,-1.26 -2.34,-2.06 -0.28,-0.33 -0.85,-0.94 -0.27,-1.06 0.59,-0.12 1.61,0.46 2.13,0.68 0.91,0.38 1.81,0.82 2.65,1.34 l 1.0100006,-1.7 C 8.4988564,11.23 6.4988564,10.32 4.6388564,10.05 c -1.06,-0.16 -2.18,0.06 -2.54,1.21 -0.32,0.99 0.19,1.99 0.77,2.77 1.37,1.83 3.5,2.71 5.09,4.29 0.34,0.33 0.75,0.72 0.95,1.18 0.21,0.44 0.16,0.47 -0.31,0.47 -1.24,0 -2.79,-0.97 -3.8,-1.61 l -1.01,1.7 c 1.53,0.94 4.09,2.41 5.9600004,1.79 m 9.2100002,-13.52 -5.67,5.67 h -2.29 v -2.29 l 5.67,-5.68 2.29,2.3 m 3.4,-0.78 c -0.01,0.3 -0.32,0.61 -0.64,0.92 l -2.52,2.53 -0.87,-0.87 2.6,-2.59 -0.59,-0.59 -0.67,0.67 -2.29,-2.29 2.15,-2.15 c 0.24,-0.24 0.63,-0.24 0.86,0 l 1.43,1.43 c 0.24,0.22 0.24,0.62 0,0.86 -0.21,0.21 -0.41,0.41 -0.41,0.61 -0.02,0.2 0.18,0.42 0.38,0.59 0.29,0.3 0.58,0.58 0.57,0.88 z"
       id="path2" />
  </g>
  <g
     inkscape:groupmode="layer"
     id="layer1"
     inkscape:label="Layer 0"
     style="display:inline;opacity:1">
    <path
       id="rect1101"
       style="display:inline;opacity:1;fill:url(#linearGradient15147);fill-opacity:1.0;stroke-width:2;stroke-linecap:round;stroke-linejoin:round"
       d="M 4,0 C 3.5285955,0 3,0.52859548 3,1 v 22 c 0,0.471405 0.5285955,1 1,1 h 16 c 0.471405,0 1,-0.528595 1,-1 V 7.5 L 13.5,0 Z"
       sodipodi:nodetypes="ssssssccs"
       inkscape:export-filename="C:\Users\tyler\Desktop\AppLogoTest2.png"
       inkscape:export-xdpi="512"
       inkscape:export-ydpi="512" />
  </g>
  <g
     inkscape:groupmode="layer"
     id="layer3"
     inkscape:label="Layer 1"
     style="display:inline">
    <path
       style="fill:url(#linearGradient13481);fill-opacity:1;stroke:none;stroke-width:1px;stroke-linecap:butt;stroke-linejoin:miter;stroke-opacity:1"
       d="M 13.5,0 13.75,7.25 21,7.5 Z"
       id="path12205"
       sodipodi:nodetypes="cccc" />
  </g>
  <g
     inkscape:groupmode="layer"
     id="layer4"
     inkscape:label="Layer 2"
     style="display:inline">
    <g
       id="g15712"
       style="fill:url(#linearGradient15816);fill-opacity:1">
      <path
         d="m 10.567306,20.914324 c 1.049162,-0.405307 0.81929,-1.522795 0.288814,-2.229186 C 10.33154,17.961376 9.6065563,17.463428 8.8756795,16.98285 8.3569927,16.658605 7.8795651,16.253298 7.4964442,15.790091 7.3314075,15.599018 6.9954399,15.245823 7.3373017,15.176341 c 0.3477559,-0.06947 0.9489611,0.266344 1.2554578,0.393727 0.5363692,0.220023 1.0668446,0.474788 1.5619555,0.775872 l 0.595311,-0.984316 C 9.8305354,14.765245 8.6517012,14.238347 7.5553859,14.082015 c -0.6247818,-0.09264 -1.2849285,0.03474 -1.4971186,0.700601 -0.1886135,0.573219 0.1119891,1.152228 0.4538509,1.603855 0.807501,1.059587 2.0629587,1.569115 3.0001314,2.483949 0.2004024,0.191074 0.4420631,0.416887 0.5599464,0.683231 0.123778,0.254765 0.09431,0.272135 -0.1827193,0.272135 -0.7308771,0 -1.6444732,-0.561639 -2.2397842,-0.932205 l -0.5953109,0.984316 c 0.9018077,0.544268 2.4107147,1.395412 3.5129244,1.036427 m 5.428529,-7.828204 -3.341994,3.282981 h -1.349763 v -1.325932 l 3.341992,-3.288772 1.349765,1.331722 m 2.004017,-0.451627 c -0.0059,0.173703 -0.188613,0.353195 -0.377227,0.532688 l -1.48533,1.464892 -0.512793,-0.503737 1.532484,-1.499632 -0.347756,-0.341617 -0.394909,0.387935 -1.349764,-1.32593 1.267245,-1.24487 c 0.141461,-0.1389614 0.371333,-0.1389614 0.506899,0 l 0.842866,0.827984 c 0.14146,0.127382 0.14146,0.358985 0,0.497947 -0.123778,0.121592 -0.241661,0.237395 -0.241661,0.353196 -0.01179,0.115803 0.106095,0.243186 0.223979,0.341616 0.17093,0.173703 0.341862,0.335826 0.335967,0.509528 z"
         id="path2859"
         style="display:inline;fill:url(#linearGradient3057);fill-opacity:1;stroke-width:0.58419" />
      <path
         style="fill:url(#linearGradient1264);fill-opacity:1;stroke:none;stroke-width:1px;stroke-linecap:butt;stroke-linejoin:miter;stroke-opacity:1"
         d="m 6,3 h 5 V 4 H 6 Z"
         id="path3398"
         sodipodi:nodetypes="ccccc" />
      <path
         style="fill:url(#linearGradient2213);fill-opacity:1;stroke:none;stroke-width:1px;stroke-linecap:butt;stroke-linejoin:miter;stroke-opacity:1"
         d="m 6,5 h 6 V 6 H 6 Z"
         id="path3400" />
      <path
         style="fill:url(#linearGradient2409);fill-opacity:1;stroke:none;stroke-width:1px;stroke-linecap:butt;stroke-linejoin:miter;stroke-opacity:1"
         d="m 6,7 h 4 V 8 H 6 Z"
         id="path3402"
         sodipodi:nodetypes="ccccc" />
      <path
         style="fill:url(#linearGradient2733);fill-opacity:1;stroke:none;stroke-width:1px;stroke-linecap:butt;stroke-linejoin:miter;stroke-opacity:1"
         d="m 6,9 h 8 v 1 H 6 Z"
         id="path3661" />
      <path
         style="fill:url(#linearGradient2863);fill-opacity:1;stroke:none;stroke-width:1px;stroke-linecap:butt;stroke-linejoin:miter;stroke-opacity:1"
         d="m 6,11 h 6 v 1 H 6 Z"
         id="path3663" />
    </g>
    <path
       style="display:inline;fill:url(#linearGradient14467);fill-opacity:1;stroke:none;stroke-width:1px;stroke-linecap:butt;stroke-linejoin:miter;stroke-opacity:1"
       d="M 13.5,0 C 14,1 14,2 13.75,7.25 19,7 20,7 21,7.5 21,7.127322 20.763523,6.7635231 20.5,6.5 l -6,-6 C 14.236477,0.23647686 13.872678,0 13.5,0 Z"
       id="path5345"
       sodipodi:nodetypes="cccssc" />
  </g>
</svg>
