<?xml version="1.0" encoding="UTF-8" standalone="no"?>
<svg
   viewBox="0 0 24 24"
   version="1.1"
   id="svg4"
   sodipodi:docname="MDI_map-marker.svg"
   inkscape:version="1.1.2 (b8e25be833, 2022-02-05)"
   xmlns:inkscape="http://www.inkscape.org/namespaces/inkscape"
   xmlns:sodipodi="http://sodipodi.sourceforge.net/DTD/sodipodi-0.dtd"
   xmlns="http://www.w3.org/2000/svg"
   xmlns:svg="http://www.w3.org/2000/svg">
  <defs
     id="defs8" />
  <sodipodi:namedview
     id="namedview6"
     pagecolor="#ffffff"
     bordercolor="#666666"
     borderopacity="1.0"
     inkscape:pageshadow="2"
     inkscape:pageopacity="0.0"
     inkscape:pagecheckerboard="0"
     showgrid="false"
     inkscape:zoom="36.291667"
     inkscape:cx="12"
     inkscape:cy="12.013777"
     inkscape:window-width="1858"
     inkscape:window-height="1057"
     inkscape:window-x="54"
     inkscape:window-y="-8"
     inkscape:window-maximized="1"
     inkscape:current-layer="layer2" />
  <g
     inkscape:groupmode="layer"
     id="layer1"
     inkscape:label="Layer 0"
     style="display:none">
    <path
       d="M 12,11.5 A 2.5,2.5 0 0 1 9.5,9 2.5,2.5 0 0 1 12,6.5 2.5,2.5 0 0 1 14.5,9 2.5,2.5 0 0 1 12,11.5 M 12,2 A 7,7 0 0 0 5,9 c 0,5.25 7,13 7,13 0,0 7,-7.75 7,-13 A 7,7 0 0 0 12,2 Z"
       id="path2" />
  </g>
  <g
     inkscape:groupmode="layer"
     id="layer2"
     inkscape:label="Layer 1"
     style="display:inline">
    <path
       d="M 12,11.5 A 2.5,2.5 0 0 1 9.5,9 2.5,2.5 0 0 1 12,6.5 2.5,2.5 0 0 1 14.5,9 2.5,2.5 0 0 1 12,11.5 M 12,2 A 7,7 0 0 0 5,9 c 0,5.25 7,13 7,13 0,0 7,-7.75 7,-13 A 7,7 0 0 0 12,2 Z"
       id="path828" />
  </g>
</svg>
