<?xml version="1.0" encoding="UTF-8" standalone="no"?>
<svg
   viewBox="0 0 24 24"
   version="1.1"
   id="svg4"
   sodipodi:docname="MDI_email-variant_colored2.svg"
   inkscape:version="1.1.2 (b8e25be833, 2022-02-05)"
   xmlns:inkscape="http://www.inkscape.org/namespaces/inkscape"
   xmlns:sodipodi="http://sodipodi.sourceforge.net/DTD/sodipodi-0.dtd"
   xmlns="http://www.w3.org/2000/svg"
   xmlns:svg="http://www.w3.org/2000/svg">
  <defs
     id="defs8" />
  <sodipodi:namedview
     id="namedview6"
     pagecolor="#d7d533"
     bordercolor="#666666"
     borderopacity="1.0"
     inkscape:pageshadow="2"
     inkscape:pageopacity="0"
     inkscape:pagecheckerboard="0"
     showgrid="false"
     showguides="true"
     inkscape:guide-bbox="true"
     inkscape:zoom="32"
     inkscape:cx="8.0625"
     inkscape:cy="13.78125"
     inkscape:window-width="1858"
     inkscape:window-height="1057"
     inkscape:window-x="54"
     inkscape:window-y="-8"
     inkscape:window-maximized="1"
     inkscape:current-layer="layer2">
    <inkscape:grid
       type="xygrid"
       id="grid826" />
    <sodipodi:guide
       position="12,11"
       orientation="-0.52999894,0.8479983"
       id="guide828" />
    <sodipodi:guide
       position="12,11"
       orientation="-0.52938873,-0.84837938"
       id="guide830" />
    <sodipodi:guide
       position="2,14.89"
       orientation="0.52999894,0.8479983"
       id="guide832" />
    <sodipodi:guide
       position="22,14.89"
       orientation="0.52999894,-0.8479983"
       id="guide834" />
  </sodipodi:namedview>
  <path
     d="M12,13L2,6.76V6C2,4.89 2.89,4 4,4H20A2,2 0 0,1 22,6V6.75L12,13M22,18A2,2 0 0,1 20,20H4C2.89,20 2,19.1 2,18V9.11L4,10.36V18H20V10.36L22,9.11V18Z"
     id="path2" />
  <g
     inkscape:groupmode="layer"
     id="layer1"
     inkscape:label="Layer 1"
     style="opacity:1">
    <path
       style="fill:#7d2933;stroke-width:2;stroke-linecap:round;stroke-linejoin:round;fill-opacity:1"
       d="M 2,9.109375 V 18 c 0,1.108 0.892,2 2,2 h 16 c 1.108,0 2,-0.892 2,-2 V 9.109375 l -10,6.25 z"
       id="path1379" />
  </g>
  <g
     inkscape:groupmode="layer"
     id="layer2"
     inkscape:label="Layer 2">
    <path
       id="rect1423"
       style="fill:#ffffff;stroke-width:2;stroke-linecap:round;stroke-linejoin:round"
       d="M 22,6.75 V 9.11 L 12,15.36 2,9.11 V 6.7597656 Z"
       sodipodi:nodetypes="cccccc" />
  </g>
  <g
     inkscape:groupmode="layer"
     id="layer3"
     inkscape:label="Layer 3">
    <path
       style="opacity:1;fill:#7d2933;stroke-width:2;stroke-linecap:round;stroke-linejoin:round;fill-opacity:1"
       d="M 4,4 C 2.892,4 2,4.892 2,6 V 6.7597656 L 12,13 22,6.75 V 6 C 22,4.892 21.108,4 20,4 Z"
       id="rect1003" />
  </g>
</svg>
